<?xml version="1.0" standalone="no"?>
<!DOCTYPE svg PUBLIC "-//W3C//DTD SVG 20010904//EN"
 "http://www.w3.org/TR/2001/REC-SVG-20010904/DTD/svg10.dtd">
<svg version="1.0" xmlns="http://www.w3.org/2000/svg"
 width="1500.000000pt" height="1500.000000pt" viewBox="0 0 1500.000000 1500.000000"
 preserveAspectRatio="xMidYMid meet">
<metadata>
Created by potrace 1.11, written by Peter Selinger 2001-2013
</metadata>
<g transform="translate(0.000000,1500.000000) scale(0.100000,-0.100000)"
fill="#000000" stroke="none">
<path d="M0 7500 l0 -7500 7500 0 7500 0 0 7500 0 7500 -7500 0 -7500 0 0
-7500z m4508 4445 c455 -74 845 -405 992 -843 86 -256 83 -575 -6 -824 -130
-362 -410 -642 -772 -772 -249 -89 -568 -92 -824 -6 -306 103 -575 335 -723
626 -99 193 -140 384 -132 614 7 209 43 353 131 528 177 349 526 612 896 672
41 6 82 13 90 15 47 9 268 3 348 -10z m3255 -10 c472 -106 836 -457 959 -923
30 -111 31 -127 32 -307 0 -217 -15 -304 -80 -468 -276 -694 -1079 -1000
-1744 -667 -247 125 -435 312 -560 560 -96 192 -133 351 -133 575 1 350 130
654 382 898 188 183 411 297 665 342 103 18 381 13 479 -10z m3134 10 c397
-64 737 -312 920 -671 144 -281 177 -588 98 -898 -52 -207 -172 -414 -329
-571 -245 -243 -550 -368 -896 -367 -219 1 -372 37 -565 132 -444 220 -718
692 -692 1194 14 263 96 487 254 698 188 249 481 430 773 478 41 6 82 13 90
15 47 9 268 3 347 -10z m-6362 -3201 c235 -40 483 -171 661 -348 264 -265 393
-621 363 -1003 -44 -544 -440 -999 -981 -1125 -79 -19 -122 -22 -283 -22 -180
1 -196 2 -307 32 -468 123 -821 491 -924 964 -24 111 -29 342 -10 460 43 264
155 485 343 679 299 308 704 437 1138 363z m3217 -5 c237 -47 443 -156 622
-329 188 -182 307 -395 363 -652 25 -117 25 -390 0 -508 -54 -251 -168 -462
-347 -640 -178 -179 -389 -293 -640 -347 -118 -25 -391 -25 -508 0 -433 95
-788 403 -936 815 -88 247 -93 565 -11 815 60 185 169 362 310 502 305 304
721 429 1147 344z m3057 20 c450 -42 830 -307 1026 -714 84 -174 119 -333 119
-540 0 -159 -13 -249 -56 -385 -147 -467 -558 -809 -1042 -870 -117 -15 -319
-8 -421 14 -364 81 -658 296 -842 618 -199 347 -216 794 -44 1154 196 409 577
681 1015 723 118 12 121 12 245 0z m-6319 -3204 c262 -40 494 -154 683 -334
194 -185 326 -430 372 -687 22 -120 22 -334 1 -449 -94 -512 -479 -909 -987
-1016 -80 -17 -138 -22 -254 -22 -228 -1 -383 36 -579 136 -360 184 -606 522
-672 925 -19 118 -14 349 10 460 66 301 233 563 474 745 277 207 616 294 952
242z m3280 -14 c438 -100 795 -423 929 -841 55 -169 74 -378 51 -556 -68 -546
-494 -990 -1040 -1085 -108 -19 -336 -16 -442 5 -424 82 -766 357 -933 747
-151 353 -129 783 59 1111 195 343 521 569 911 634 110 19 353 11 465 -15z
m3110 14 c144 -22 233 -50 365 -114 145 -71 252 -149 361 -263 307 -321 420
-758 309 -1194 -54 -213 -166 -406 -329 -570 -547 -546 -1446 -480 -1908 141
-77 102 -171 295 -202 412 -65 244 -59 505 16 733 85 260 269 503 495 653 182
122 330 176 573 211 64 9 234 4 320 -9z"/>
</g>
</svg>
